<svg xmlns="http://www.w3.org/2000/svg" version="1.1" xmlns:xlink="http://www.w3.org/1999/xlink" xmlns:svgjs="http://svgjs.dev/svgjs" width="1000" height="1000" viewBox="0 0 1000 1000"><rect width="1000" height="1000" fill="#ffffff"></rect><g transform="matrix(0.7,0,0,0.7,149.57575978072953,282.1265587044535)"><svg viewBox="0 0 396 247" data-background-color="#ffffff" preserveAspectRatio="xMidYMid meet" height="623" width="1000" xmlns="http://www.w3.org/2000/svg" xmlns:xlink="http://www.w3.org/1999/xlink"><g id="tight-bounds" transform="matrix(1,0,0,1,0.23999875261586112,-0.09999999999999432)"><svg viewBox="0 0 395.52 247.2" height="247.2" width="395.52"><g><svg></svg></g><g><svg viewBox="0 0 395.52 247.2" height="247.2" width="395.52"><g><g><path xmlns="http://www.w3.org/2000/svg" d="M49.066 247.2h-48.059l9.038-93.538 46.673 0-1.033 14.112h22.446l-1.227-14.112h46.4l8.929 93.538h-46.907l-3.454-40.001h-29.928zM24.893 0h83.743l8.929 93.538-45.889 0-4.48-51.523h-2.302l-3.773 51.523-45.266 0zM202.105 247.2h-49.209l0-93.538 49.209 0zM152.896 0h48.922l0 93.538-48.922 0zM224.84 0h49.785l-22.849 93.538h-48.689zM280.381 247.2h-51.225l-21.136-93.538 49.076 0zM365.16 247.2h-49.498l0-93.538 49.498 0zM315.662 47.483h-29.353v-47.483h108.204v47.483h-29.353v46.055l-49.498 0z" fill="#000000" fill-rule="nonzero" stroke="none" stroke-width="1" stroke-linecap="butt" stroke-linejoin="miter" stroke-miterlimit="10" stroke-dasharray="" stroke-dashoffset="0" font-family="none" font-weight="none" font-size="none" text-anchor="none" style="mix-blend-mode: normal" data-fill-palette-color="tertiary"></path></g></g><g transform="matrix(1,0,0,1,0,100.32960991991733)"><svg viewBox="0 0 395.52 46.54078016016533" height="46.54078016016533" width="395.52"><g><svg viewBox="0 0 395.52 46.54078016016533" height="46.54078016016533" width="395.52"><g><svg viewBox="0 0 395.52 46.54078016016533" height="46.54078016016533" width="395.52"><g><svg viewBox="0 0 395.52 46.54078016016533" height="46.54078016016533" width="395.52"><g><svg viewBox="0 0 395.52 46.54078016016533" height="46.54078016016533" width="395.52"><g><svg viewBox="0 0 395.52 46.54078016016533" height="46.54078016016533" width="395.52"><g transform="matrix(1,0,0,1,0,0)"><svg width="395.52" viewBox="0.75 -45.150001525878906 387.05999755859375 45.55000305175781" height="46.54078016016533" data-palette-color="#000000"><path d="M9.1 0L0.75 0 4.9-42.95 19.45-42.95 23.55 0 15.4 0 14.8-6.95 9.6-6.95 9.1 0ZM11.85-35.65L10.25-13.8 14.15-13.8 12.25-35.65 11.85-35.65ZM26 0L26-36.6 34.75-36.6 34.75-31.95Q35.3-34.2 36.65-35.6 38-37 40.25-37L40.25-37Q43.95-37 45.72-34.73 47.5-32.45 47.5-28.25L47.5-28.25 47.5 0 38.9 0 38.9-27.35Q38.9-28.55 38.42-29.4 37.95-30.25 36.95-30.25L36.95-30.25Q35.6-30.25 35.17-29.03 34.75-27.8 34.75-25.75L34.75-25.75 34.75 0 26 0ZM59.6 0L50.95 0 50.95-43.2 59.6-43.2 59.6-24 63.8-36.6 72.85-36.6 67.35-20.7 74.35 0 65.05 0 59.6-17.25 59.6 0ZM84.19-39.05L75.44-39.05 75.44-45.15 84.19-45.15 84.19-39.05ZM84.19 0L75.44 0 75.44-36.6 84.19-36.6 84.19 0ZM95.19 0.4Q91.74 0.4 90.44-1.05 89.14-2.5 89.14-5.7L89.14-5.7 89.14-28.55 86.69-28.55 86.69-35.2 89.14-35.2 89.14-42.95 97.64-42.95 97.64-35.2 100.14-35.2 100.14-28.55 97.64-28.55 97.64-8Q97.64-7.05 97.79-6.6 97.94-6.15 98.59-6.15L98.59-6.15Q99.09-6.15 99.54-6.2 99.99-6.25 100.14-6.25L100.14-6.25 100.14-0.25Q99.39-0.05 97.97 0.18 96.54 0.4 95.19 0.4L95.19 0.4ZM123.29 0L114.74 0 114.74-42.95 123.24-42.95 123.24-25.75 127.24-42.95 135.89-42.95 131.09-23.3 136.89 0 127.99 0 123.29-20.8 123.29 0ZM145.23 0.4Q141.13 0.4 139.61-2.05 138.08-4.5 138.08-9.35L138.08-9.35 138.08-36.6 146.88-36.6 146.88-11.1Q146.88-10.75 146.88-9.22 146.88-7.7 147.36-7.08 147.83-6.45 148.83-6.45L148.83-6.45Q150.18-6.45 150.53-7.58 150.88-8.7 150.88-10.8L150.88-10.8 150.88-11.1 150.93-36.6 159.63-36.6 159.63 0 150.88 0 150.88-3.9Q149.98-1.6 148.78-0.6 147.58 0.4 145.23 0.4L145.23 0.4ZM163.13 0L163.13-36.6 171.68-36.6 171.68-32.35Q172.28-34.7 173.73-35.85 175.18-37 177.83-37L177.83-37Q179.98-37 181.56-36.02 183.13-35.05 183.78-33.35L183.78-33.35Q184.88-35.25 186.23-36.13 187.58-37 189.98-37L189.98-37Q194.28-37 195.96-34.38 197.63-31.75 197.63-26.75L197.63-26.75 197.53 0 188.73 0 188.73-26.9Q188.73-30.45 186.93-30.45L186.93-30.45Q185.68-30.45 185.13-29.23 184.58-28 184.58-26.3L184.58-26.3 184.58 0 175.83 0 175.83-26.9Q175.83-28.45 175.51-29.4 175.18-30.35 174.13-30.35L174.13-30.35Q172.78-30.35 172.23-29.03 171.68-27.7 171.68-25.85L171.68-25.85 171.68 0 163.13 0ZM207.68 0.4Q203.43 0.4 201.85-2.43 200.28-5.25 200.28-10.5L200.28-10.5Q200.28-14.8 201.4-17.1 202.53-19.4 204.53-20.48 206.53-21.55 210.63-22.85L210.63-22.85 213.03-23.65 213.03-23.75 213.03-27.4Q213.03-28.85 212.45-29.63 211.88-30.4 211.08-30.4L211.08-30.4Q210.38-30.4 209.85-29.75 209.33-29.1 209.33-28L209.33-28 209.33-25.8 200.83-25.8 200.83-27Q200.83-32.4 203.35-34.7 205.88-37 211.58-37L211.58-37Q216.13-37 218.98-34.63 221.83-32.25 221.83-27.9L221.83-27.9 221.83 0 213.13 0 213.13-4.35Q212.48-2.1 211.05-0.85 209.63 0.4 207.68 0.4L207.68 0.4ZM211.13-6.4Q212.13-6.4 212.55-7.23 212.98-8.05 212.98-9.25L212.98-9.25 212.98-19.45Q211.03-18.7 210.1-17.55 209.18-16.4 209.18-14.35L209.18-14.35 209.18-9.65Q209.18-6.4 211.13-6.4L211.13-6.4ZM225.18 0L225.18-36.6 233.93-36.6 233.93-32.55Q234.58-34.7 236.2-35.88 237.83-37.05 240.23-37.05L240.23-37.05 240.23-29.75Q238.38-29.75 236.15-29.23 233.93-28.7 233.93-28L233.93-28 233.93 0 225.18 0ZM266.52 0L257.92 0 257.92-34.7 252.82-34.7 252.82-42.95 271.62-42.95 271.62-34.7 266.52-34.7 266.52 0ZM273.87 0L273.87-43.2 282.87-43.2 282.87-33Q284.27-37 288.22-37L288.22-37Q291.92-37 293.82-34.65 295.72-32.3 295.72-28.2L295.72-28.2 295.72 0 286.97 0 286.97-27.65Q286.97-28.85 286.42-29.6 285.87-30.35 284.82-30.35L284.82-30.35Q283.92-30.35 283.39-29.58 282.87-28.8 282.87-27.7L282.87-27.7 282.87 0 273.87 0ZM305.77 0.4Q301.52 0.4 299.94-2.43 298.37-5.25 298.37-10.5L298.37-10.5Q298.37-14.8 299.49-17.1 300.62-19.4 302.62-20.48 304.62-21.55 308.72-22.85L308.72-22.85 311.12-23.65 311.12-23.75 311.12-27.4Q311.12-28.85 310.54-29.63 309.97-30.4 309.17-30.4L309.17-30.4Q308.47-30.4 307.94-29.75 307.42-29.1 307.42-28L307.42-28 307.42-25.8 298.92-25.8 298.92-27Q298.92-32.4 301.44-34.7 303.97-37 309.67-37L309.67-37Q314.22-37 317.07-34.63 319.92-32.25 319.92-27.9L319.92-27.9 319.92 0 311.22 0 311.22-4.35Q310.57-2.1 309.14-0.85 307.72 0.4 305.77 0.4L305.77 0.4ZM309.22-6.4Q310.22-6.4 310.64-7.23 311.07-8.05 311.07-9.25L311.07-9.25 311.07-19.45Q309.12-18.7 308.19-17.55 307.27-16.4 307.27-14.35L307.27-14.35 307.27-9.65Q307.27-6.4 309.22-6.4L309.22-6.4ZM331.91 0L323.26 0 323.26-43.2 331.91-43.2 331.91-24 336.11-36.6 345.16-36.6 339.66-20.7 346.66 0 337.36 0 331.91-17.25 331.91 0ZM354.86 0.4Q350.76 0.4 349.24-2.05 347.71-4.5 347.71-9.35L347.71-9.35 347.71-36.6 356.51-36.6 356.51-11.1Q356.51-10.75 356.51-9.22 356.51-7.7 356.99-7.08 357.46-6.45 358.46-6.45L358.46-6.45Q359.81-6.45 360.16-7.58 360.51-8.7 360.51-10.8L360.51-10.8 360.51-11.1 360.56-36.6 369.26-36.6 369.26 0 360.51 0 360.51-3.9Q359.61-1.6 358.41-0.6 357.21 0.4 354.86 0.4L354.86 0.4ZM372.76 0L372.76-36.6 381.51-36.6 381.51-32.55Q382.16-34.7 383.78-35.88 385.41-37.05 387.81-37.05L387.81-37.05 387.81-29.75Q385.96-29.75 383.73-29.23 381.51-28.7 381.51-28L381.51-28 381.51 0 372.76 0Z" opacity="1" transform="matrix(1,0,0,1,0,0)" fill="#000000" class="undefined-text-0" data-fill-palette-color="primary" id="text-0"></path></svg></g></svg></g></svg></g></svg></g></svg></g></svg></g></svg></g></svg></g><defs></defs></svg><rect width="395.52" height="247.2" fill="none" stroke="none" visibility="hidden"></rect></g></svg></g></svg>